{"title":"Vikramadithyan Malayalam Movie Song - Mazhanila (1080p) - BrOkS","uid":10545387,"size":93628829,"categoryP":"video","categoryS":"music_videos","magnet":"?xt=urn:btih:1cb951e53f608e66ab223865e63815aa3329c999&amp;dn=Vikramadithyan+Malayalam+Movie+Song+-+Mazhanila+%281080p%29+-+BrOkS&amp;tr=udp%3A%2F%2Ftracker.openbittorrent.com%3A80&amp;tr=udp%3A%2F%2Fopen.demonii.com%3A1337&amp;tr=udp%3A%2F%2Ftracker.coppersurfer.tk%3A6969&amp;tr=udp%3A%2F%2Fexodus.desync.com%3A6969","seeders":1,"leechers":0,"uploader":"hetzack","files":1,"time":1405279945,"description":"\n\n@@ INFO @@\n\nMusic Composed By - Bijibal\nSingers - Najeem Arshad &amp; Sowmya T R\nLyricist - Santhosh Varma\n\n### MEDIA ##\n\n\nVideo\nID : 1\nFormat : AVC\nFormat/Info : Advanced Video Codec\nFormat profile : &lt;a class=&quot;__cf_email__&quot; href=&quot;/cdn-cgi/l/email-protection&quot; data-cfemail=&quot;135b7a747b535f273d23&quot;&gt;[email&amp;#160;protected]&lt;/a&gt;&lt;script cf-hash='f9e31' type=&quot;text/javascript&quot;&gt;\n/* &lt;![CDATA[ */!function(){try{var t=&quot;currentScript&quot;in document?document.currentScript:function(){for(var t=document.getElementsByTagName(&quot;script&quot;),e=t.length;e--;)if(t[e].getAttribute(&quot;cf-hash&quot;))return t[e]}();if(t&amp;&amp;t.previousSibling){var e,r,n,i,c=t.previousSibling,a=c.getAttribute(&quot;data-cfemail&quot;);if(a){for(e=&quot;&quot;,r=parseInt(a.substr(0,2),16),n=2;a.length-n;n+=2)i=parseInt(a.substr(n,2),16)^r,e+=String.fromCharCode(i);e=document.createTextNode(e),c.parentNode.replaceChild(e,c)}}}catch(u){}}();/* ]]&gt; */&lt;/script&gt;\nFormat settings, CABAC : Yes\nFormat settings, ReFrames : 3 frames\nCodec ID : avc1\nCodec ID/Info : Advanced Video Coding\nDuration : 3mn 53s\nBit rate : 3 074 Kbps\nWidth : 1 920 pixels\nHeight : 824 pixels\nDisplay aspect ratio : 2.35:1\nFrame rate mode : Constant\nFrame rate : 24.000 fps\nColor space : YUV\nChroma subsampling : 4:2:0\nBit depth : 8 bits\nScan type : Progressive\nBits/(Pixel*Frame) : 0.081\nStream size : 85.6 MiB (96%)\n\nAudio\nID : 2\nFormat : AAC\nFormat/Info : Advanced Audio Codec\nFormat profile : LC\nCodec ID : 40\nDuration : 3mn 53s\nBit rate mode : Constant\nBit rate : 126 Kbps\nChannel(s) : 2 channels\nChannel positions : Front: L R\nSampling rate : 44.1 KHz\nCompression mode : Lossy\nStream size : 3.50 MiB (4%)\n\n\n\n\n\n\n\n&gt;&gt;&gt;&gt;&gt;&gt;&gt;&gt;&gt;&gt;&gt; seedback ","torrent":{"xt":"urn:btih:1cb951e53f608e66ab223865e63815aa3329c999","amp;dn":"Vikramadithyan+Malayalam+Movie+Song+-+Mazhanila+%281080p%29+-+BrOkS","amp;tr":["udp%3A%2F%2Ftracker.openbittorrent.com%3A80","udp%3A%2F%2Fopen.demonii.com%3A1337","udp%3A%2F%2Ftracker.coppersurfer.tk%3A6969","udp%3A%2F%2Fexodus.desync.com%3A6969"],"infoHash":"1cb951e53f608e66ab223865e63815aa3329c999","infoHashBuffer":{"type":"Buffer","data":[28,185,81,229,63,96,142,102,171,34,56,101,230,56,21,170,51,41,201,153]},"announce":[],"urlList":[]}}